<?xml version="1.0" standalone="no"?>
<!DOCTYPE svg PUBLIC "-//W3C//DTD SVG 20010904//EN"
 "http://www.w3.org/TR/2001/REC-SVG-20010904/DTD/svg10.dtd">
<svg version="1.0" xmlns="http://www.w3.org/2000/svg"
 width="512.000000pt" height="512.000000pt" viewBox="0 0 512.000000 512.000000"
 preserveAspectRatio="xMidYMid meet">

<g transform="translate(0.000000,512.000000) scale(0.100000,-0.100000)"
fill="#000000" stroke="none">
<path d="M3605 5104 c-192 -33 -403 -123 -557 -235 -123 -91 -1099 -1070
-1163 -1168 -59 -90 -118 -223 -152 -345 -34 -125 -43 -335 -18 -457 23 -114
72 -242 131 -340 59 -98 193 -243 275 -298 110 -73 178 -64 339 44 167 112
240 211 242 325 1 94 -31 150 -174 298 -145 150 -182 211 -182 292 0 75 21
111 118 200 44 41 283 276 531 521 429 424 454 447 527 482 184 88 400 92 577
12 227 -104 375 -323 388 -575 9 -167 -42 -324 -146 -454 -27 -33 -627 -638
-1333 -1343 -934 -933 -1300 -1292 -1347 -1322 -204 -130 -447 -142 -671 -33
-100 49 -229 176 -283 279 -102 196 -102 428 0 626 33 65 79 115 451 489 l414
416 -5 44 c-2 23 -14 84 -25 133 -30 129 -45 293 -37 411 7 95 6 103 -14 123
-13 13 -34 21 -53 21 -30 0 -80 -47 -541 -507 -280 -280 -543 -549 -585 -599
-141 -167 -230 -347 -280 -558 -22 -95 -26 -135 -26 -276 -1 -235 34 -391 131
-588 177 -361 526 -623 928 -697 137 -26 416 -17 545 17 201 54 355 131 508
254 126 102 2680 2666 2749 2760 110 150 189 330 230 524 21 102 24 369 5 470
-38 197 -130 407 -247 561 -160 214 -415 389 -668 459 -177 50 -414 64 -582
34z"/>
</g>
</svg>
